<svg xmlns="http://www.w3.org/2000/svg" width="100%" viewBox="0 0 571.12 174.00" style="max-width: 571.12px; background-color: transparent;" font-family="&quot;trebuchet ms&quot;, verdana, arial, sans-serif" font-size="16.00">
  <defs>
    <marker id="arrowhead" viewBox="0 0 10.00 10.00" refX="5.00" refY="5.00" markerWidth="8.00" markerHeight="8.00" orient="auto-start-reverse" markerUnits="userSpaceOnUse">
      <path d="M 0 0 L 10.00 5.00 L 0 10.00 z" fill="#333" />
    </marker>
  </defs>
  <g transform="translate(0.00,0.00)">
    <g class="edgePaths">
      <path d="M78.67,62.00 L78.67,64.78 C78.67,67.56 78.67,73.11 104.23,78.67 C129.78,84.22 180.89,89.78 206.45,94.67 C232.00,99.56 232.00,103.78 232.00,105.89 L232.00,108.00" stroke="#333" stroke-width="1.00" fill="none" stroke-linecap="round" stroke-linejoin="round" marker-end="url(#arrowhead)" />
      <path d="M195.45,62.00 L195.45,64.78 C195.45,67.56 195.45,73.11 205.16,78.67 C214.86,84.22 234.27,89.78 243.97,94.67 C253.68,99.56 253.68,103.78 253.68,105.89 L253.68,108.00" stroke="#333" stroke-width="1.00" fill="none" stroke-linecap="round" stroke-linejoin="round" marker-end="url(#arrowhead)" />
      <path d="M285.12,62.00 L285.12,64.78 C285.12,67.56 285.12,73.11 285.12,78.67 C285.12,84.22 285.12,89.78 285.12,94.67 C285.12,99.56 285.12,103.78 285.12,105.89 L285.12,108.00" stroke="#333" stroke-width="1.00" fill="none" stroke-linecap="round" stroke-linejoin="round" marker-end="url(#arrowhead)" />
      <path d="M375.12,62.00 L375.12,64.78 C375.12,67.56 375.12,73.11 365.38,78.67 C355.64,84.22 336.16,89.78 326.42,94.67 C316.68,99.56 316.68,103.78 316.68,105.89 L316.68,108.00" stroke="#333" stroke-width="1.00" fill="none" stroke-linecap="round" stroke-linejoin="round" marker-end="url(#arrowhead)" />
      <path d="M492.45,62.00 L492.45,64.78 C492.45,67.56 492.45,73.11 466.75,78.67 C441.05,84.22 389.65,89.78 363.94,94.67 C338.24,99.56 338.24,103.78 338.24,105.89 L338.24,108.00" stroke="#333" stroke-width="1.00" fill="none" stroke-linecap="round" stroke-linejoin="round" marker-end="url(#arrowhead)" />
    </g>
    <g class="nodes">
      <g class="node default" id="A" data-id="A" data-look="classic">
        <rect x="8.00" y="8.00" width="70.67" height="54.00" fill="white" stroke="#333" stroke-width="1.00" stroke-linejoin="round" />
        <text x="43.34" y="35.00" text-anchor="middle" dominant-baseline="middle" fill="#333">A</text>
      </g>
      <g class="node default" id="B" data-id="B" data-look="classic">
        <rect x="128.67" y="8.00" width="70.67" height="54.00" fill="white" stroke="#333" stroke-width="1.00" stroke-linejoin="round" />
        <text x="164.01" y="35.00" text-anchor="middle" dominant-baseline="middle" fill="#333">B</text>
      </g>
      <g class="node default" id="C" data-id="C" data-look="classic">
        <rect x="249.34" y="8.00" width="71.55" height="54.00" fill="white" stroke="#333" stroke-width="1.00" stroke-linejoin="round" />
        <text x="285.12" y="35.00" text-anchor="middle" dominant-baseline="middle" fill="#333">C</text>
      </g>
      <g class="node default" id="D" data-id="D" data-look="classic">
        <rect x="370.90" y="8.00" width="71.55" height="54.00" fill="white" stroke="#333" stroke-width="1.00" stroke-linejoin="round" />
        <text x="406.68" y="35.00" text-anchor="middle" dominant-baseline="middle" fill="#333">D</text>
      </g>
      <g class="node default" id="E" data-id="E" data-look="classic">
        <rect x="492.45" y="8.00" width="70.67" height="54.00" fill="white" stroke="#333" stroke-width="1.00" stroke-linejoin="round" />
        <text x="527.79" y="35.00" text-anchor="middle" dominant-baseline="middle" fill="#333">E</text>
      </g>
      <g class="node default" id="F" data-id="F" data-look="classic">
        <rect x="232.00" y="112.00" width="106.24" height="54.00" fill="white" stroke="#333" stroke-width="1.00" stroke-linejoin="round" />
        <text x="285.12" y="139.00" text-anchor="middle" dominant-baseline="middle" fill="#333">Target</text>
      </g>
    </g>
    <g class="edgeLabels">
    </g>
  </g>
</svg>
