<svg xmlns="http://www.w3.org/2000/svg" width="100%" viewBox="0 0 571.12 174.00" style="max-width: 571.12px; background-color: transparent;" font-family="&quot;trebuchet ms&quot;, verdana, arial, sans-serif" font-size="16.00">
  <defs>
    <marker id="arrowhead" viewBox="0 0 10.00 10.00" refX="5.00" refY="5.00" markerWidth="8.00" markerHeight="8.00" orient="auto-start-reverse" markerUnits="userSpaceOnUse">
      <path d="M 0 0 L 10.00 5.00 L 0 10.00 z" fill="#333" />
    </marker>
  </defs>
  <g transform="translate(0.00,0.00)">
    <g class="edgePaths">
      <path d="M70.67,62.00 L70.67,64.78 C70.67,67.56 70.67,73.11 98.89,78.11 C127.11,83.11 183.56,87.56 211.78,92.44 C240.00,97.33 240.00,102.67 240.00,105.33 L240.00,108.00" stroke="#333" stroke-width="1.00" fill="none" stroke-linecap="round" stroke-linejoin="round" marker-end="url(#arrowhead)" />
      <path d="M191.34,62.00 L191.34,64.78 C191.34,67.56 191.34,73.11 202.55,78.11 C213.75,83.11 236.15,87.56 247.36,92.44 C258.56,97.33 258.56,102.67 258.56,105.33 L258.56,108.00" stroke="#333" stroke-width="1.00" fill="none" stroke-linecap="round" stroke-linejoin="round" marker-end="url(#arrowhead)" />
      <path d="M285.12,62.00 L285.12,64.78 C285.12,67.56 285.12,73.11 285.12,78.11 C285.12,83.11 285.12,87.56 285.12,92.44 C285.12,97.33 285.12,102.67 285.12,105.33 L285.12,108.00" stroke="#333" stroke-width="1.00" fill="none" stroke-linecap="round" stroke-linejoin="round" marker-end="url(#arrowhead)" />
      <path d="M378.90,62.00 L378.90,64.78 C378.90,67.56 378.90,73.11 367.70,78.11 C356.49,83.11 334.09,87.56 322.88,92.44 C311.68,97.33 311.68,102.67 311.68,105.33 L311.68,108.00" stroke="#333" stroke-width="1.00" fill="none" stroke-linecap="round" stroke-linejoin="round" marker-end="url(#arrowhead)" />
      <path d="M500.45,62.00 L500.45,64.78 C500.45,67.56 500.45,73.11 472.08,78.11 C443.72,83.11 386.98,87.56 358.61,92.44 C330.24,97.33 330.24,102.67 330.24,105.33 L330.24,108.00" stroke="#333" stroke-width="1.00" fill="none" stroke-linecap="round" stroke-linejoin="round" marker-end="url(#arrowhead)" />
    </g>
    <g class="nodes">
      <g class="node default" id="A" data-id="A" data-look="classic">
        <rect x="8.00" y="8.00" width="70.67" height="54.00" fill="white" stroke="#333" stroke-width="1.00" stroke-linejoin="round" />
        <text x="43.34" y="35.00" text-anchor="middle" dominant-baseline="middle" fill="#333">A</text>
      </g>
      <g class="node default" id="B" data-id="B" data-look="classic">
        <rect x="128.67" y="8.00" width="70.67" height="54.00" fill="white" stroke="#333" stroke-width="1.00" stroke-linejoin="round" />
        <text x="164.01" y="35.00" text-anchor="middle" dominant-baseline="middle" fill="#333">B</text>
      </g>
      <g class="node default" id="C" data-id="C" data-look="classic">
        <rect x="249.34" y="8.00" width="71.55" height="54.00" fill="white" stroke="#333" stroke-width="1.00" stroke-linejoin="round" />
        <text x="285.12" y="35.00" text-anchor="middle" dominant-baseline="middle" fill="#333">C</text>
      </g>
      <g class="node default" id="D" data-id="D" data-look="classic">
        <rect x="370.90" y="8.00" width="71.55" height="54.00" fill="white" stroke="#333" stroke-width="1.00" stroke-linejoin="round" />
        <text x="406.68" y="35.00" text-anchor="middle" dominant-baseline="middle" fill="#333">D</text>
      </g>
      <g class="node default" id="E" data-id="E" data-look="classic">
        <rect x="492.45" y="8.00" width="70.67" height="54.00" fill="white" stroke="#333" stroke-width="1.00" stroke-linejoin="round" />
        <text x="527.79" y="35.00" text-anchor="middle" dominant-baseline="middle" fill="#333">E</text>
      </g>
      <g class="node default" id="F" data-id="F" data-look="classic">
        <rect x="232.00" y="112.00" width="106.24" height="54.00" fill="white" stroke="#333" stroke-width="1.00" stroke-linejoin="round" />
        <text x="285.12" y="139.00" text-anchor="middle" dominant-baseline="middle" fill="#333">Target</text>
      </g>
    </g>
    <g class="edgeLabels">
    </g>
  </g>
</svg>
