<svg xmlns="http://www.w3.org/2000/svg" width="100%" viewBox="0 0 1019.52 459.89" style="max-width: 1019.52px; background-color: transparent;" font-family="&quot;trebuchet ms&quot;, verdana, arial, sans-serif" font-size="16.00">
  <defs>
    <marker id="arrowhead" viewBox="0 0 10.00 10.00" refX="5.00" refY="5.00" markerWidth="8.00" markerHeight="8.00" orient="auto-start-reverse" markerUnits="userSpaceOnUse">
      <path d="M 0 0 L 10.00 5.00 L 0 10.00 z" fill="#333" />
    </marker>
  </defs>
  <g transform="translate(-35.00,-4.00)">
    <g class="clusters">
      <g class="cluster" id="clients">
        <rect class="subgraph" x="43.00" y="33.45" width="370.42" height="286.60" fill="none" stroke="#888" stroke-width="1.00" />
        <text x="228.21" y="37.45" text-anchor="middle" dominant-baseline="hanging" fill="#333">Client Layer</text>
      </g>
      <g class="cluster" id="data">
        <rect class="subgraph" x="842.12" y="12.00" width="204.41" height="443.89" fill="none" stroke="#888" stroke-width="1.00" />
        <text x="944.32" y="16.00" text-anchor="middle" dominant-baseline="hanging" fill="#333">Data Layer</text>
      </g>
      <g class="cluster" id="services">
        <rect class="subgraph" x="533.42" y="17.22" width="188.70" height="383.93" fill="none" stroke="#888" stroke-width="1.00" />
        <text x="627.77" y="21.22" text-anchor="middle" dominant-baseline="hanging" fill="#333">Service Layer</text>
      </g>
    </g>
    <g class="edgePaths">
      <path d="M180.81,110.45 L180.81,111.79 C180.81,113.12 180.81,115.79 191.00,125.40 C201.19,135.02 221.57,151.59 231.75,159.88 L241.94,168.16" stroke="#333" stroke-width="1.00" fill="none" stroke-linecap="round" stroke-linejoin="round" marker-end="url(#arrowhead)" />
      <path d="M195.05,259.05 L195.05,257.72 C195.05,256.38 195.05,253.72 202.87,245.75 C210.70,237.79 226.35,224.53 234.17,217.90 L242.00,211.27" stroke="#333" stroke-width="1.00" fill="none" stroke-linecap="round" stroke-linejoin="round" marker-end="url(#arrowhead)" />
      <path d="M398.42,170.68 L416.42,170.68 L434.76,170.68 C453.09,170.68 489.76,170.68 508.09,154.77 C526.42,138.86 526.42,107.04 526.42,91.13 L526.42,75.22 L544.42,75.22" stroke="#333" stroke-width="1.00" fill="none" stroke-linecap="round" stroke-linejoin="round" marker-end="url(#arrowhead)" />
      <path d="M398.42,189.68 L448.42,189.68 L452.59,189.68 C456.76,189.68 465.09,189.68 473.42,189.68 C481.76,189.68 490.09,189.68 494.26,189.68 L498.42,189.68 L544.42,189.68" stroke="#333" stroke-width="1.00" fill="none" stroke-linecap="round" stroke-linejoin="round" marker-end="url(#arrowhead)" />
      <path d="M398.42,208.68 L416.42,208.68 L416.42,233.76 C416.42,258.84 416.42,309.00 434.76,334.07 C453.09,359.15 489.76,359.15 508.09,359.15 L526.42,359.15 L544.42,359.15" stroke="#333" stroke-width="1.00" fill="none" stroke-linecap="round" stroke-linejoin="round" marker-end="url(#arrowhead)" />
      <path d="M699.13,75.22 L751.79,75.22 L756.18,75.22 C760.57,75.22 769.35,75.22 778.12,75.22 C786.90,75.22 795.68,75.22 800.07,75.22 L804.46,75.22 L853.12,75.22" stroke="#333" stroke-width="1.00" fill="none" stroke-linecap="round" stroke-linejoin="round" marker-end="url(#arrowhead)" />
      <path d="M700.00,189.68 L752.37,189.68 L756.74,189.68 C761.10,189.68 769.83,189.68 778.56,189.68 C787.29,189.68 796.02,189.68 800.38,189.68 L804.74,189.68 L853.12,189.68" stroke="#333" stroke-width="1.00" fill="none" stroke-linecap="round" stroke-linejoin="round" marker-end="url(#arrowhead)" />
      <path d="M707.12,340.15 L725.12,340.15 L743.45,340.15 C761.78,340.15 798.45,340.15 816.78,334.20 C835.12,328.24 835.12,316.33 835.12,310.37 L835.12,304.41 L853.12,304.41" stroke="#333" stroke-width="1.00" fill="none" stroke-linecap="round" stroke-linejoin="round" marker-end="url(#arrowhead)" />
      <path d="M707.12,378.15 L725.12,378.15 L743.45,378.15 C761.78,378.15 798.45,378.15 816.78,384.11 C835.12,390.07 835.12,401.98 835.12,407.94 L835.12,413.89 L853.12,413.89" stroke="#333" stroke-width="1.00" fill="none" stroke-linecap="round" stroke-linejoin="round" marker-end="url(#arrowhead)" />
    </g>
    <g class="nodes">
      <rect x="58.00" y="64.45" width="122.81" height="54.00" rx="27.00" ry="27.00" fill="white" stroke="#333" stroke-width="1.00" stroke-linejoin="round" />
      <text x="119.41" y="91.45" text-anchor="middle" dominant-baseline="middle" fill="#333">Web App</text>
      <rect x="245.05" y="162.68" width="153.38" height="54.00" fill="white" stroke="#333" stroke-width="1.00" stroke-linejoin="round" />
      <text x="321.73" y="189.68" text-anchor="middle" dominant-baseline="middle" fill="#333">API Gateway</text>
      <rect x="58.00" y="251.05" width="137.05" height="54.00" rx="27.00" ry="27.00" fill="white" stroke="#333" stroke-width="1.00" stroke-linejoin="round" />
      <text x="126.52" y="278.05" text-anchor="middle" dominant-baseline="middle" fill="#333">Mobile App</text>
      <rect x="548.42" y="48.22" width="150.71" height="54.00" fill="white" stroke="#333" stroke-width="1.00" stroke-linejoin="round" />
      <text x="623.78" y="75.22" text-anchor="middle" dominant-baseline="middle" fill="#333">Auth Service</text>
      <rect x="548.42" y="162.68" width="151.58" height="54.00" fill="white" stroke="#333" stroke-width="1.00" stroke-linejoin="round" />
      <text x="624.21" y="189.68" text-anchor="middle" dominant-baseline="middle" fill="#333">User Service</text>
      <rect x="548.42" y="332.15" width="158.70" height="54.00" fill="white" stroke="#333" stroke-width="1.00" stroke-linejoin="round" />
      <text x="627.77" y="359.15" text-anchor="middle" dominant-baseline="middle" fill="#333">Order Service</text>
      <path d="M857.12,53.44 A44.79,10.44 0 0,0 946.70,53.44 A44.79,10.44 0 0,0 857.12,53.44 L857.12,97.00 A44.79,10.44 0 0,0 946.70,97.00 L946.70,53.44" fill="white" stroke="#333" stroke-width="1.00" stroke-linejoin="round" />
      <path d="M857.12,53.44 A44.79,10.44 0 0,1 946.70,53.44" fill="none" stroke="#333" stroke-width="1.00" />
      <text x="901.91" y="80.44" text-anchor="middle" dominant-baseline="middle" fill="#333">Auth DB</text>
      <path d="M857.12,167.93 A45.23,10.50 0 0,0 947.57,167.93 A45.23,10.50 0 0,0 857.12,167.93 L857.12,211.44 A45.23,10.50 0 0,0 947.57,211.44 L947.57,167.93" fill="white" stroke="#333" stroke-width="1.00" stroke-linejoin="round" />
      <path d="M857.12,167.93 A45.23,10.50 0 0,1 947.57,167.93" fill="none" stroke="#333" stroke-width="1.00" />
      <text x="902.34" y="194.93" text-anchor="middle" dominant-baseline="middle" fill="#333">User DB</text>
      <path d="M857.12,282.89 A48.79,10.96 0 0,0 954.69,282.89 A48.79,10.96 0 0,0 857.12,282.89 L857.12,325.93 A48.79,10.96 0 0,0 954.69,325.93 L954.69,282.89" fill="white" stroke="#333" stroke-width="1.00" stroke-linejoin="round" />
      <path d="M857.12,282.89 A48.79,10.96 0 0,1 954.69,282.89" fill="none" stroke="#333" stroke-width="1.00" />
      <text x="905.90" y="309.89" text-anchor="middle" dominant-baseline="middle" fill="#333">Order DB</text>
      <rect x="857.12" y="386.89" width="174.41" height="54.00" rx="27.00" ry="27.00" fill="white" stroke="#333" stroke-width="1.00" stroke-linejoin="round" />
      <text x="944.32" y="413.89" text-anchor="middle" dominant-baseline="middle" fill="#333">Message Queue</text>
    </g>
    <g class="edgeLabels">
    </g>
  </g>
</svg>
